<?xml version="1.0" encoding="utf-8"?>
<!-- Generator: Adobe Illustrator 16.0.0, SVG Export Plug-In . SVG Version: 6.00 Build 0)  -->
<!DOCTYPE svg PUBLIC "-//W3C//DTD SVG 1.1//EN" "http://www.w3.org/Graphics/SVG/1.1/DTD/svg11.dtd">
<svg version="1.1" id="Layer_1" xmlns="http://www.w3.org/2000/svg" xmlns:xlink="http://www.w3.org/1999/xlink" x="0px" y="0px"
	 width="800px" height="800px" viewBox="0 0 800 800" enable-background="new 0 0 800 800" xml:space="preserve">
<g>
	<rect x="393" y="23" fill="#FCF7C5" width="15" height="259"/>
</g>
<g>
	
		<rect x="572.515" y="84.127" transform="matrix(0.7071 0.7071 -0.7071 0.7071 320.7768 -347.6075)" fill="#FCF7C5" width="15" height="258.612"/>
</g>
<g>
	
		<rect x="486.516" y="61.127" transform="matrix(0.8624 0.5062 -0.5062 0.8624 164.3702 -223.8733)" fill="#FCF7C5" width="14.999" height="258.612"/>
</g>
<g>
	
		<rect x="421.515" y="91.127" transform="matrix(0.9547 0.2977 -0.2977 0.9547 85.0578 -117.7059)" fill="#FCF7C5" width="15" height="258.613"/>
</g>
<line fill="none" stroke="#FCF7C5" stroke-width="15" stroke-miterlimit="10" x1="567.923" y1="160.995" x2="410.106" y2="365.871"/>
<line fill="none" stroke="#FCF7C5" stroke-width="15" stroke-miterlimit="10" x1="231.106" y1="160.995" x2="388.923" y2="365.871"/>
<g>
	
		<rect x="240.709" y="216.933" transform="matrix(0.2977 0.9547 -0.9547 0.2977 474.1164 -195.619)" fill="#FCF7C5" width="258.612" height="15"/>
</g>
<g>
	
		<rect x="175.71" y="183.933" transform="matrix(0.5062 0.8624 -0.8624 0.5062 315.7184 -168.5211)" fill="#FCF7C5" width="258.612" height="15"/>
</g>
<g>
	
		<rect x="89.458" y="205.934" transform="matrix(0.7071 0.7071 -0.7071 0.7071 214.9949 -92.1764)" fill="#FCF7C5" width="258.613" height="15"/>
</g>
<ellipse fill="#FFFFFF" cx="398.343" cy="347.613" rx="216.241" ry="179.209"/>
<path fill="#BFBFBF" d="M645.472,629.295c0,82.117-110.243,148.59-246.25,148.59s-246.256-66.424-246.256-148.541L133.613,382
	h530.621L645.472,629.295z"/>
<path fill="#D5D5D5" d="M186.892,641.999l-53.279-260.466l19.353,247.52c0,82.117,110.25,148.715,246.256,148.715
	C263.215,777.768,223.517,730.784,186.892,641.999z"/>
<ellipse fill="#797979" cx="400.032" cy="381.613" rx="279.057" ry="168.487"/>
<path fill="#919191" d="M395.791,224.71c149.517,0,275.807,84.35,282.963,165.19c0.221-2.746,0.335-5.508,0.335-8.287
	c0-93.053-124.938-168.487-279.058-168.487c-154.118,0-279.056,75.434-279.056,168.487c0,2.779,0.114,5.541,0.335,8.287
	C128.467,309.06,246.275,224.71,395.791,224.71z"/>
<path fill="#919191" d="M402.869,538.387c-149.517,0-275.807-84.35-282.963-165.189c-0.22,2.746-0.335,5.508-0.335,8.287
	c0,93.053,124.938,168.486,279.058,168.486c154.118,0,279.056-75.434,279.056-168.486c0-2.779-0.114-5.541-0.335-8.287
	C670.193,454.037,552.386,538.387,402.869,538.387z"/>
<path fill="#D5D5D5" d="M665.048,309.655c-7.679,0-14.948,2.549-21.434,7.097c13.806,19.965,21.434,41.875,21.434,64.861
	c0,23.076-7.688,45.068-21.595,65.096c6.526,4.62,13.853,7.213,21.595,7.213c27.334,0,49.493-32.295,49.493-72.133
	S692.382,309.655,665.048,309.655z"/>
<path fill="#EAEAEA" d="M674.457,310.963c15.623,21.761,24.288,45.766,24.288,70.994c0,25.066-8.554,48.924-23.988,70.574
	c22.685-6.578,39.784-35.748,39.784-70.742C714.541,346.641,697.291,317.369,674.457,310.963z"/>
<path fill="#EAEAEA" d="M171.447,644.808l-37.834-263.274l19.353,247.52c0,82.117,110.25,148.715,246.256,148.715
	C263.215,777.768,208.071,733.593,171.447,644.808z"/>
<path fill="#D5D5D5" d="M134.805,453.922c7.678,0,14.948-2.549,21.433-7.096c-13.805-19.966-21.433-41.875-21.433-64.862
	c0-23.076,7.687-45.068,21.594-65.096c-6.526-4.62-13.853-7.212-21.594-7.212c-27.335,0-49.494,32.296-49.494,72.134
	S107.47,453.922,134.805,453.922z"/>
<g>
	<path fill="#F4F4F4" d="M484.9,312.621c0-67.031-37.688-121.371-84.169-121.371c-46.493,0-84.182,54.34-84.182,121.371
		c0,4.287,0.158,8.514,0.461,12.691c-0.036,0.899-0.049,1.822-0.049,2.732c0,11.15,2.174,21.789,6.122,31.519
		c12.463,30.753,42.619,52.444,77.854,52.444c33.983,0,63.255-20.197,76.457-49.238c4.821-10.578,7.506-22.336,7.506-34.725
		c0-2.125-0.074-4.227-0.231-6.303C484.814,318.73,484.9,315.693,484.9,312.621z"/>
	<ellipse fill="#FCF7C5" cx="401.202" cy="329.244" rx="35.524" ry="43.42"/>
</g>
<path fill="#EAEAEA" d="M125.541,452.531c-15.623-21.762-24.288-45.767-24.288-70.995c0-25.065,8.554-48.924,23.988-70.573
	c-22.685,6.577-39.784,35.748-39.784,70.742C85.457,416.854,102.707,446.125,125.541,452.531z"/>
<g>
	<path fill="#FFFFFF" d="M690.5,489c-0.266,25.475-36.223,26.072-54.22,25.637c-35.379-0.854-70.888-9.452-104.488-20.062
		c-23.078-7.287-47.896-15.585-67.794-29.786c-0.504,1.864-1.009,3.728-1.514,5.591c19.791,0.051,56.369,4.173,56.974-24.589
		c0.034-1.63-1.391-3.008-3-3c-23.393,0.11-51.531,5.253-57.199,31.811c-1.673,7.838-1.187,15.845-1.503,23.791
		c-0.207,5.179-0.724,10.184-6.423,10.272c1,1,2,2,3,3c0.095-15.262,4.024-30.878,8.118-45.477
		c4.449-15.869,10.139-34.39,22.052-46.396c1.934-1.949,4.221-3.641,6.821-4.57c1.157-0.413,2.324-0.585,3.545-0.614
		c0.827-0.02,1.076,0.179,0.624-0.038c-1.478-0.709-0.11-2.969-1.222-1.387c-0.334,0.474-2.162,2.155-3.132,2.97
		c-8.744,7.343-19.406,12.84-29.5,18.042c-11.728,6.044-23.955,11.639-36.726,15.089c-3.894,1.052-8.463,2.234-12.495,1.607
		c-2.874-0.446-3.464-1.328-2.814-4.302c-0.964,0.733-1.929,1.468-2.893,2.202c2.299,0.137,3.787,5.823,4.307,7.465
		c1.6,5.043,2.344,10.368,2.805,15.622c0.455,5.19,0.502,10.441-0.002,15.629c-0.196,2.028-0.604,4.041-1.246,5.976
		c-0.439,1.32-0.577,1.479-1.048,1.459c-3.373-0.134-5.244-5.257-6.113-7.785c-1.679-4.892-2.219-10.142-2.433-15.278
		c-0.211-5.094,0.057-10.263,0.987-15.278c0.361-1.943,0.832-3.961,1.633-5.776c0.273-0.62,1.425-2.055,1.11-2.032
		c-0.707-1.707-1.414-3.414-2.121-5.121c-10.941,8.867-24.325,13.855-37.14,19.32c1.504,0.864,2.549,1.728,4.549,2.591
		c0-2.998,0-5.997,0-8.995c-1,1-2.035,2-3.035,3c5.761,0.27,5.241,14.845,5.161,18.339c-0.188,8.245-1.5,19.103-7.012,25.688
		c-1.514,1.81-4.517,3.368-6.235,0.855c-2.473-3.612-1.085-10.038-0.393-13.956c1.97-11.14,6.036-22.287,11.035-32.413
		c1.54-3.119-2.095-5.853-4.712-3.635c-10.732,9.092-21.342,18.326-32.414,27.006c-9.145,7.169-20.306,16.969-32.087,19.213
		c-3.035,0.578-4.711-1.668-4.035-4.671c1.638-7.277,7.165-13.722,11.931-19.188c4.828-5.537,10.156-10.609,15.311-15.835
		c2.619-2.655,6.425-5.852,6.835-9.802c0.285-2.744-3.395-3.779-5.121-2.121c-3.363,3.229-7.851,5.631-11.782,8.084
		c-8.007,4.996-16.29,9.553-24.728,13.777c-18.997,9.514-40.546,18.551-62.134,18.641c-24.579,0.103-49.839-0.42-74.069-4.774
		c-4.458-0.801-8.924-1.809-13.161-3.435c-1.323-0.508-2.586-1.205-3.743-2.022c-0.853-0.602-0.989-1.087-1-1.337
		c-0.169-3.854-6.169-3.87-6,0c0.426,9.723,17.017,11.665,23.97,12.874c15.495,2.692,31.337,3.553,47.03,4.164
		c8.983,0.351,17.981,0.563,26.972,0.53c21.049-0.077,41.705-8.308,60.456-17.168c9.828-4.645,19.383-9.893,28.644-15.58
		c4.628-2.843,9.835-5.718,13.786-9.512c-1.707-0.707-3.414-1.414-5.121-2.121c-0.027,0.259-2.508,2.872-3.211,3.625
		c-2.548,2.727-5.245,5.317-7.88,7.959c-5.994,6.007-11.812,12.21-16.693,19.174c-3.656,5.216-7.384,11.724-5.939,18.27
		c0.897,4.063,4.296,6.323,8.27,6.54c4.958,0.271,10.164-2.572,14.359-4.851c6.681-3.629,12.875-8.182,18.928-12.757
		c12.72-9.616,24.708-20.14,36.867-30.44c-1.57-1.212-3.141-2.424-4.712-3.635c-6.219,12.599-11.412,26.774-12.572,40.853
		c-0.386,4.686-0.008,10.765,4.008,13.918c3.847,3.02,8.68,2.116,12.277-0.709c8.488-6.667,9.854-22.332,10.078-32.146
		c0.176-7.679-0.664-22.911-11.165-23.401c-1.635-0.076-2.965,1.423-2.965,3c0,2.998,0,5.997,0,8.995
		c0,2.49,2.465,3.449,4.479,2.591c13.383-5.707,26.956-11.007,38.372-20.26c2.017-1.634,0.366-5.297-2.13-5.121
		c-10.392,0.733-9.889,21.258-9.764,28.133c0.182,9.919,1.81,28.473,14.572,30.018c10.729,1.3,8.75-22.581,8.371-28.085
		c-0.547-7.966-1.801-29.388-13.188-30.065c-1.269-0.075-2.623,0.965-2.894,2.202c-5.221,23.883,38.691,4.709,46.394,1.308
		c12.17-5.373,24.054-11.615,35.259-18.794c4.037-2.586,16.594-9.145,15.032-15.558c-1.592-6.537-12.399-2.22-15.657-0.141
		c-9.456,6.034-15.052,17.644-19.358,27.559c-5.624,12.951-9.564,26.623-12.632,40.385c-2.315,10.384-4.457,21.231-4.523,31.913
		c-0.01,1.616,1.372,3.025,3,3c16.019-0.249,12.078-21.413,12.839-32.005c0.625-8.699,3.311-16.936,9.89-22.939
		c10.922-9.967,28.491-10.864,42.396-10.93c-1-1-2-2-3-3c-0.497,23.678-35.242,18.629-50.974,18.589
		c-3.181-0.008-3.833,3.936-1.514,5.591c10.229,7.301,21.91,12.529,33.446,17.382c15.686,6.599,31.867,12.028,48.202,16.771
		c33.046,9.597,68.168,17.282,102.762,16.531c20.474-0.444,50.847-5.554,51.119-31.655C696.54,485.129,690.54,485.133,690.5,489
		L690.5,489z"/>
</g>
</svg>
