<?xml version="1.0" encoding="utf-8"?>
<!-- Generator: Adobe Illustrator 16.0.0, SVG Export Plug-In . SVG Version: 6.00 Build 0)  -->
<!DOCTYPE svg PUBLIC "-//W3C//DTD SVG 1.1//EN" "http://www.w3.org/Graphics/SVG/1.1/DTD/svg11.dtd">
<svg version="1.1" id="Layer_1" xmlns="http://www.w3.org/2000/svg" xmlns:xlink="http://www.w3.org/1999/xlink" x="0px" y="0px"
	 width="1280px" height="800px" viewBox="0 0 1280 800" enable-background="new 0 0 1280 800" xml:space="preserve">
<g>
	<g>
		<path fill="#FCF8BA" d="M663.738,536.521c-16.451-1.614-106.014,10.181-99.206-59.376c4.669-47.69,51.082-20.299,84.109,0.324
			c0,0,81.293,61.416,96.81-97.121c8.401-85.847-171.409-45.877-171.409-45.877s-17.823,2.265-34.448,25.831
			c-18.18-20.791-49.062-39.908-101.555-45.048c-84.089-8.227-88.018,154.044-88.018,154.044s-6.669,50.578,91.329,86.918
			c0,0,37.748,13.677,66.648,2.848c4.718,9.754,14.827,19.651,36.306,21.755l154.209,7.501c0,0,19.65-5.405,21.812-27.496
			C722.486,538.735,663.738,536.521,663.738,536.521z M610.478,369.67c0,0,5.479-10.694,21.454-9.129
			c29.609,2.897,74.2,7.836,69.602,49.989c-1.761,16.14-17.366,31.987-28.645,30.882C561.037,430.466,610.478,369.67,610.478,369.67
			z M478.421,401.477c-39.076,105.376-85.273,42.078-85.273,42.078s-8.946-8.021-3.362-23.074
			c10.342-27.894,26.478-69.756,66.066-54.57C471.012,371.726,482.361,390.85,478.421,401.477z"/>
		<path fill="#F7D8B4" d="M390.685,301.376c0,0,23.137-67.44-26.027-82.813c0,0-41.246-19.172-54.931,24.592
			c-3.854,12.327-8.179,52.533-8.179,52.533s10.419,24.7,52.481,37.852C363.643,336.545,384.132,322.33,390.685,301.376z"/>
		<path fill="#FCF8BA" d="M280.029,268.092c0,0,0.624-105.116-50.629-104.644c0,0-44.946-8.521-44.324,59.021
			c0.624,67.543,2.887,313.037,2.887,313.037s-0.42,57.523,44.447,57.11c0,0,103.555-3.497,103.23-38.588
			c-0.323-35.09-29.946-25.458-42.517-25.342C280.546,528.804,280.268,294.012,280.029,268.092z"/>
		<path fill="#FCF8BA" d="M1142.441,420.652c0,0,37.416-7.45,37.138-37.587c-0.276-30.141,3.234-55.035-55.478-54.494
			c-58.711,0.54-63.42-31.417-63.707-62.553c-0.287-31.135,36.55,5.902,77.469,5.524c40.92-0.377,41.59-25.288,41.435-42.188
			c-0.155-16.902-106.847-34.156-172.488-33.55c0,0-45.361-9.217-44.729,59.282c0.631,68.494,2.927,317.452,2.927,317.452
			s-1.119,58.344,44.382,57.924c45.502-0.419,50.203-44.864,49.99-67.78c0,0-31.356-175.449-1.619-175.724
			C1087.496,386.683,1117.908,420.879,1142.441,420.652z"/>
		<path fill="#F7D8B4" d="M991.851,448.238l-0.528-57.295c0,0,1.176-38.729-43.916-38.314c-25.08,0.23-27.229,38.089-27.229,38.089
			l-6.755,104.207c0.232,25.179-36.551,30.402-36.551,30.402c-29.748,0.275-50.557-2.841-50.879-37.785
			c0,0,0.783-68.478,0.662-81.699c-0.261-28.33,17.45-2.837,17.078-43.132c-0.371-40.294-40.236-36.604-40.236-36.604
			s-36.613,7.955-36.357,35.826c0.258,27.867,1.616,175.194,1.616,175.194c0.794,86.254,167.095,38.667,167.095,38.667
			s3.244,14.779,14.383,14.675c11.139-0.103,24.989-0.229,24.989-0.229s13.188-3.358,13.022-21.302S992.641,534.178,991.851,448.238
			z"/>
	</g>
</g>
</svg>
